<svg xmlns="http://www.w3.org/2000/svg" width="25" height="25" viewBox="0 0 30 30" fill="none">
  <g clip-path="url(#clip0_133_1021)">
    <path d="M28.125 0H7.5C6.46359 0 5.625 0.838594 5.625 1.875V4.6875H1.875C0.838594 4.6875 0 5.52609 0 6.5625V20.625C0 21.6614 0.838594 22.5 1.875 22.5H5.15625C5.41547 22.5 5.625 22.7095 5.625 22.9688V28.125C5.625 28.883 6.08109 29.5678 6.78234 29.857C7.01484 29.9541 7.25812 30 7.5 30C7.98703 30 8.46656 29.8097 8.82562 29.4506L15.4613 22.815C15.4613 22.815 15.7031 22.5 16.245 22.5C16.7869 22.5 23.4375 22.5 23.4375 22.5C24.4739 22.5 25.3125 21.6614 25.3125 20.625V16.875H28.125C29.1614 16.875 30 16.0364 30 15V1.875C30 0.838594 29.1614 0 28.125 0ZM24.375 20.625C24.375 21.143 23.9555 21.5625 23.4375 21.5625C23.4375 21.5625 16.553 21.5625 16.245 21.5625C15.3323 21.5625 15 22.0312 15 22.0312C15 22.0312 9.375 27.6562 8.4375 28.5938C7.43391 29.5973 6.5625 28.777 6.5625 28.125C6.5625 27.6562 6.5625 22.5 6.5625 22.5C6.5625 21.982 6.14297 21.5625 5.625 21.5625H1.875C1.35703 21.5625 0.9375 21.143 0.9375 20.625V6.5625C0.9375 6.04453 1.35703 5.625 1.875 5.625H23.4375C23.9555 5.625 24.375 6.04453 24.375 6.5625V20.625ZM29.0625 15C29.0625 15.518 28.643 15.9375 28.125 15.9375H25.3125V6.5625C25.3125 5.52609 24.4739 4.6875 23.4375 4.6875H6.5625V1.875C6.5625 1.35703 6.98203 0.9375 7.5 0.9375H28.125C28.643 0.9375 29.0625 1.35703 29.0625 1.875V15Z" fill="#18312D"/>
    <path d="M6.09375 11.25H12.1875C12.4467 11.25 12.6562 11.0405 12.6562 10.7812C12.6562 10.522 12.4467 10.3125 12.1875 10.3125H6.09375C5.83453 10.3125 5.625 10.522 5.625 10.7812C5.625 11.0405 5.83453 11.25 6.09375 11.25Z" fill="#231F20"/>
    <path d="M19.2188 13.125H6.09375C5.83453 13.125 5.625 13.3345 5.625 13.5938C5.625 13.853 5.83453 14.0625 6.09375 14.0625H19.2188C19.478 14.0625 19.6875 13.853 19.6875 13.5938C19.6875 13.3345 19.478 13.125 19.2188 13.125Z" fill="#18312D"/>
    <path d="M15.9375 15.9375H6.09375C5.83453 15.9375 5.625 16.147 5.625 16.4062C5.625 16.6655 5.83453 16.875 6.09375 16.875H15.9375C16.1967 16.875 16.4062 16.6655 16.4062 16.4062C16.4062 16.147 16.1967 15.9375 15.9375 15.9375Z" fill="#18312D"/>
  </g>
  <defs>
    <clipPath id="clip0_133_1021">
      <rect width="30" height="30" fill="white"/>
    </clipPath>
  </defs>
</svg>