<svg xmlns="http://www.w3.org/2000/svg" width="25" height="25" viewBox="0 0 30 30" fill="none">
  <path d="M22.5 2.8125C20.4291 2.8125 18.5541 3.65203 17.197 5.00953L15.3319 6.86625C15.1486 7.04953 14.8523 7.04953 14.6691 6.86625C14.6691 6.86625 12.8077 5.00531 12.8039 5.00953C11.4459 3.65203 9.57094 2.8125 7.5 2.8125C3.35766 2.8125 0 6.17016 0 10.3125C0 11.8772 0.48 13.3294 1.29984 14.5312C1.29984 14.5312 1.64391 15.0769 2.05078 15.4833C2.45766 15.8897 13.6744 27.1069 13.6744 27.1069C14.0405 27.473 14.5205 27.6562 15 27.6562C15.4795 27.6562 15.9595 27.473 16.3256 27.1069C16.3256 27.1069 27.5428 15.8897 27.9492 15.4833C28.3556 15.0769 28.7002 14.5312 28.7002 14.5312C29.52 13.3294 30 11.8772 30 10.3125C30 6.17016 26.6423 2.8125 22.5 2.8125ZM27.5222 14.5205C27.5222 14.5205 27.2353 14.872 26.6677 15.4397C26.1 16.0073 15.6628 26.4441 15.6628 26.4441C15.4795 26.6273 15.24 26.7188 15 26.7188C14.76 26.7188 14.5205 26.6273 14.3372 26.4441C14.3372 26.4441 3.9 16.0069 3.33234 15.4392C2.76469 14.8716 2.47781 14.52 2.47781 14.52C1.52109 13.3805 0.9375 11.9175 0.9375 10.3125C0.9375 6.68813 3.87563 3.75 7.5 3.75C9.31219 3.75 10.9528 4.48406 12.1402 5.67234L12.1444 5.66812L14.3372 7.86047C14.7033 8.22656 15.2967 8.22656 15.6628 7.86047L17.8556 5.66812L17.8598 5.67234C19.0472 4.48406 20.6878 3.75 22.5 3.75C26.1244 3.75 29.0625 6.68813 29.0625 10.3125C29.0625 11.9175 28.4789 13.3805 27.5222 14.5205Z" fill="#F30D0D"/>
  <path d="M22.5 5.625C22.2408 5.625 22.0312 5.83453 22.0312 6.09375C22.0312 6.35297 22.2408 6.5625 22.5 6.5625C24.5709 6.5625 26.25 8.24156 26.25 10.3125C26.25 10.5717 26.4595 10.7812 26.7188 10.7812C26.978 10.7812 27.1875 10.5717 27.1875 10.3125C27.1875 7.72406 25.0884 5.625 22.5 5.625Z" fill="#EB2E5D"/>
</svg>