<svg xmlns="http://www.w3.org/2000/svg" width="20" height="20" viewBox="0 0 20 20" fill="none">
  <path d="M10 0C5.85781 0 2.5 3.35781 2.5 7.5C2.5 9.27437 3.28187 10.8347 4.14719 12.1875L9.49 19.7362C9.60719 19.9019 9.7975 20 10 20C10.2025 20 10.3928 19.9019 10.51 19.7362L15.8528 12.1875C16.6797 11.0744 17.5 9.27437 17.5 7.5C17.5 3.35781 14.1422 0 10 0ZM15.0272 12.1875H15.0241L10 19.0625L4.97594 12.1875H4.97281C4.20906 11.0841 3.125 9.31219 3.125 7.5C3.125 3.70312 6.20312 0.625 10 0.625C13.7969 0.625 16.875 3.70312 16.875 7.5C16.875 9.31219 15.7128 11.1816 15.0272 12.1875Z" fill="#231F20"/>
  <path d="M10 4.375C8.27406 4.375 6.875 5.77438 6.875 7.5C6.875 9.22563 8.27406 10.625 10 10.625C11.7259 10.625 13.125 9.22563 13.125 7.5C13.125 5.77438 11.7259 4.375 10 4.375ZM10 10C8.61937 10 7.5 8.88063 7.5 7.5C7.5 6.11937 8.61937 5 10 5C11.3806 5 12.5 6.11937 12.5 7.5C12.5 8.88063 11.3806 10 10 10Z" fill="#231F20"/>
  <path d="M10 3.125C7.58375 3.125 5.625 5.08375 5.625 7.5C5.625 9.91625 7.58375 11.875 10 11.875C12.4162 11.875 14.375 9.91625 14.375 7.5C14.375 5.08375 12.4162 3.125 10 3.125ZM10 11.25C7.92906 11.25 6.25 9.57094 6.25 7.5C6.25 5.42906 7.92906 3.75 10 3.75C12.0709 3.75 13.75 5.42906 13.75 7.5C13.75 9.57094 12.0709 11.25 10 11.25Z" fill="#231F20"/>
</svg>