<svg xmlns="http://www.w3.org/2000/svg" width="40" height="40" viewBox="0 0 40 40" fill="none">
  <g clip-path="url(#clip0_129_803)">
    <path d="M3.90992 0C1.75031 0 0 1.75 0 3.90992C0 6.06977 1.75031 7.81977 3.90992 7.81977C6.06945 7.81977 7.81977 6.06977 7.81977 3.90992C7.81977 1.75 6.06945 0 3.90992 0Z" fill="#6AF1D1"/>
    <path d="M19.9998 0C17.8402 0 16.0898 1.75 16.0898 3.90992C16.0898 6.06977 17.8402 7.81977 19.9998 7.81977C22.1593 7.81977 23.9097 6.06977 23.9097 3.90992C23.9097 1.75 22.1593 0 19.9998 0Z" fill="#6AF1D1"/>
    <path d="M36.09 7.81977C38.2492 7.81977 39.9999 6.06977 39.9999 3.90992C39.9999 1.75 38.2492 0 36.09 0C33.9308 0 32.1802 1.75 32.1802 3.90992C32.1802 6.06977 33.9308 7.81977 36.09 7.81977Z" fill="#6AF1D1"/>
    <path d="M3.90992 16.0901C1.75031 16.0901 0 17.8401 0 20C0 22.1599 1.75031 23.9099 3.90992 23.9099C6.06945 23.9099 7.81977 22.1599 7.81977 20C7.81977 17.8401 6.06945 16.0901 3.90992 16.0901Z" fill="#6AF1D1"/>
    <path d="M19.9998 16.0901C17.8402 16.0901 16.0898 17.8401 16.0898 20C16.0898 22.1599 17.8402 23.9099 19.9998 23.9099C22.1593 23.9099 23.9097 22.1599 23.9097 20C23.9097 17.8401 22.1593 16.0901 19.9998 16.0901Z" fill="#6AF1D1"/>
    <path d="M36.09 16.0901C33.9308 16.0901 32.1802 17.8401 32.1802 20C32.1802 22.1599 33.9308 23.9099 36.09 23.9099C38.2492 23.9099 39.9999 22.1599 39.9999 20C39.9999 17.8401 38.2492 16.0901 36.09 16.0901Z" fill="#6AF1D1"/>
    <path d="M3.90992 32.1802C1.75031 32.1802 0 33.9302 0 36.09C0 38.2499 1.75031 39.9999 3.90992 39.9999C6.06945 39.9999 7.81977 38.2499 7.81977 36.09C7.81977 33.9302 6.06945 32.1802 3.90992 32.1802Z" fill="#6AF1D1"/>
    <path d="M19.9998 32.1802C17.8402 32.1802 16.0898 33.9302 16.0898 36.09C16.0898 38.2499 17.8402 39.9999 19.9998 39.9999C22.1593 39.9999 23.9097 38.2499 23.9097 36.09C23.9097 33.9302 22.1593 32.1802 19.9998 32.1802Z" fill="#6AF1D1"/>
    <path d="M36.09 32.1802C33.9308 32.1802 32.1802 33.9302 32.1802 36.09C32.1802 38.2499 33.9308 39.9999 36.09 39.9999C38.2492 39.9999 39.9999 38.2499 39.9999 36.09C39.9999 33.9302 38.2492 32.1802 36.09 32.1802Z" fill="#6AF1D1"/>
  </g>
  <defs>
    <clipPath id="clip0_129_803">
      <rect width="40" height="40" fill="white"/>
    </clipPath>
  </defs>
</svg>