<svg xmlns="http://www.w3.org/2000/svg" width="40" height="40" viewBox="0 0 40 40" fill="none">
  <path d="M15.7143 21.4583L24.2857 28.0208M24.2857 12.7083L15.7143 18.5416M10 20.0594V19.9404C10 18.3624 11.2792 17.0833 12.8572 17.0833C14.4351 17.0833 15.7143 18.3624 15.7143 19.9404V20.0594C15.7143 21.6374 14.4351 22.9166 12.8572 22.9166C11.2792 22.9166 10 21.6374 10 20.0594ZM24.2857 11.3094V11.1904C24.2857 9.61244 25.5648 8.33325 27.1428 8.33325C28.7208 8.33325 30 9.61244 30 11.1904V11.3094C30 12.8874 28.7208 14.1666 27.1428 14.1666C25.5648 14.1666 24.2857 12.8874 24.2857 11.3094ZM24.2857 28.8094V28.6904C24.2857 27.1124 25.5648 25.8333 27.1428 25.8333C28.7208 25.8333 30 27.1124 30 28.6904V28.8094C30 30.3874 28.7208 31.6666 27.1428 31.6666C25.5648 31.6666 24.2857 30.3874 24.2857 28.8094Z" stroke="#18312D" stroke-linecap="round" stroke-linejoin="round"/>
</svg>